<?xml version="1.0" standalone="no"?>
<!DOCTYPE svg PUBLIC "-//W3C//DTD SVG 20010904//EN"
 "http://www.w3.org/TR/2001/REC-SVG-20010904/DTD/svg10.dtd">
<svg version="1.0" xmlns="http://www.w3.org/2000/svg"
 width="1920.000000pt" height="1080.000000pt" viewBox="0 0 1920.000000 1080.000000"
 preserveAspectRatio="xMidYMid meet">

<g transform="translate(0.000000,1080.000000) scale(0.100000,-0.100000)"
fill="#000000" stroke="none">
<path d="M8990 5396 l0 -156 35 0 35 0 0 70 0 70 55 0 55 0 0 -70 0 -70 35 0
35 0 0 156 0 155 -32 -3 c-33 -3 -33 -4 -36 -60 l-3 -58 -54 0 -54 0 -3 58
c-3 56 -3 57 -35 60 l-33 3 0 -155z"/>
<path d="M9300 5395 l0 -155 83 0 c63 0 89 4 113 19 43 26 68 94 62 162 -9 94
-57 127 -185 128 l-73 1 0 -155z m172 78 c37 -43 27 -140 -17 -169 -13 -8 -38
-14 -57 -12 l-33 3 -3 98 -3 97 49 0 c34 0 53 -5 64 -17z"/>
<path d="M9610 5395 l0 -155 115 0 115 0 0 25 c0 24 -2 24 -82 27 l-83 3 -3
38 -3 37 75 0 76 0 0 30 0 30 -75 0 -75 0 0 30 0 30 86 0 85 0 -3 28 -3 27
-112 3 -113 3 0 -156z"/>
<path d="M9880 5520 l0 -30 75 0 76 0 -81 -99 c-53 -67 -80 -108 -80 -125 l0
-26 120 0 120 0 0 25 c0 24 -2 25 -75 25 -41 0 -75 3 -75 8 0 4 34 50 75 102
52 66 75 103 75 122 l0 28 -115 0 -115 0 0 -30z"/>
<path d="M10160 5430 c0 -27 3 -30 30 -30 27 0 30 3 30 30 0 27 -3 30 -30 30
-27 0 -30 -3 -30 -30z"/>
<path d="M10160 5270 c0 -27 3 -30 30 -30 27 0 30 3 30 30 0 27 -3 30 -30 30
-27 0 -30 -3 -30 -30z"/>
</g>
</svg>
